<mxfile host="app.diagrams.net" modified="2023-12-27T08:08:14.852Z" agent="Mozilla/5.0 (X11; Linux x86_64) AppleWebKit/537.36 (KHTML, like Gecko) Chrome/120.0.0.0 Safari/537.36" version="22.1.12" etag="SLZbiBkppHpAL-4QNHFq" type="github">
  <diagram name="Page-1" id="r2OpSVTROkX48xpI5DVQ">
    <mxGraphModel>
      <root>
        <mxCell id="0" />
        <mxCell id="1" parent="0" />
      </root>
    </mxGraphModel>
  </diagram>
</mxfile>
